HIERARCHY
ROOT Hips
{
	OFFSET 0.00000 0.00000 0.00000
	CHANNELS 6 Xposition Yposition Zposition Yrotation Zrotation Xrotation 
	JOINT Lumbar
	{
		OFFSET 0 0 0
		CHANNELS 3 Zrotation Xrotation Yrotation
		JOINT Neck
		{
			OFFSET 0.00 0.2701 0.00
			CHANNELS 3 Zrotation Xrotation Yrotation
			End Site
			{
				OFFSET 0.00 0.1379 0.00
			}
		}
		JOINT RightShoulder
		{
			OFFSET 0.0119 0.2289 0.1181
			CHANNELS 3 Zrotation Xrotation Yrotation
			JOINT RightElbow
			{
				OFFSET 0.00 -0.1475 0.00
				CHANNELS 2 Zrotation Yrotation
				JOINT RightWrist
				{
					OFFSET 0.00 -0.1605 0.00
					CHANNELS 2 Zrotation Xrotation
					End Site
					{
						OFFSET 0.0040 -0.1068 0.0006
					}
				}
			}
		}
		JOINT LeftShoulder
		{
			OFFSET 0.0119 0.2289 -0.1181
			CHANNELS 3 Zrotation Xrotation Yrotation
			JOINT LeftElbow
			{
				OFFSET 0.00 -0.1475 0.00
				CHANNELS 2 Zrotation Yrotation
				JOINT LeftWrist
				{
					OFFSET 0.00 -0.1605 0.00
					CHANNELS 2 Zrotation Xrotation
					End Site
					{
						OFFSET 0.0040 -0.1068 -0.0006
					}
				}
			}
		}
	}
	JOINT RightHip
	{
		OFFSET 0.0316 -0.0424 0.0458
		CHANNELS 3 Zrotation Xrotation Yrotation
		JOINT RightKnee
		{
			OFFSET 0.00 -0.2438 0.00
			CHANNELS 1 Zrotation
			JOINT RightAnkle
			{
				OFFSET 0.00 -0.2449 0.00
				CHANNELS 3 Zrotation Xrotation Yrotation
				End Site
				{
					OFFSET 0.1237 -0.0542 0.0051
				}
			}
		}
	}
	JOINT LeftHip
	{
		OFFSET 0.0316 -0.0424 -0.0458
		CHANNELS 3 Zrotation Xrotation Yrotation
		JOINT LeftKnee
		{
			OFFSET 0.00 -0.2438 0.00
			CHANNELS 1 Zrotation
			JOINT LeftAnkle
			{
				OFFSET 0.00 -0.2449 0.00
				CHANNELS 3 Zrotation Xrotation Yrotation
				End Site
				{
					OFFSET 0.1237 -0.0542 -0.0051
				}
			}
		}
	}
}
MOTION
Frames: 14
Frame Time: 0.02
0 0.57926 -0 184.65967 0 -2.52393 5.5579 5.08799 -2.92127 -0.10162 0.30614 -2.75866 -3.23594 -11.2981 -9.7728 7.20866 78.86304 -1.87671 -0.73103 -0.34042 9.81833 18.74986 5.94711 -77.55137 -4.09669 0.63256 -7.86952 6.80292 0.60245 -2.13593 3.28857 -4.08346 -4.8796 -4.90938 1.86813 -14.18872 -5.26673 7.34736 5.50279 6.73837
2e-05 0.57927 0.00032 184.62125 0 -2.55939 5.5578 5.12754 -2.9186 -0.2533 0.38906 -2.76223 -3.35533 -11.37811 -10.16584 7.12678 78.82033 -1.88874 -0.7079 -0.63942 9.72153 21.0089 5.82285 -77.17909 -4.18865 0.53982 -7.85057 6.80253 0.64925 -2.16703 3.28494 -4.08013 -4.88349 -4.94896 1.88847 -14.11852 -5.19746 7.34182 5.51159 6.66281
4e-05 0.57927 0.00065 184.58267 0 -2.59484 5.55816 5.16696 -2.91594 -0.40688 0.47206 -2.76587 -3.47079 -11.45811 -10.55897 7.04486 78.77774 -1.90041 -0.68423 -0.93325 9.62434 23.26213 5.69957 -76.80936 -4.28031 0.44689 -7.83142 6.80236 0.69812 -2.19846 3.2812 -4.07723 -4.88948 -4.98836 1.90882 -14.04856 -5.12857 7.33647 5.52049 6.58794
5e-05 0.57928 0.00097 184.54379 0 -2.63026 5.55989 5.20593 -2.91335 -0.56622 0.55656 -2.76952 -3.57749 -11.5389 -10.95483 6.96275 78.73613 -1.91104 -0.65946 -1.21649 9.52419 25.48542 5.57902 -76.44526 -4.37002 0.35366 -7.81164 6.80239 0.74586 -2.23109 3.27814 -4.07442 -4.89478 -5.027 1.92878 -13.97968 -5.06142 7.33194 5.53023 6.51584
7e-05 0.57928 0.0013 184.50736 0 -2.66545 5.55383 5.2469 -2.91046 -0.69104 0.6336 -2.77275 -3.73763 -11.61556 -11.3346 6.88258 78.69039 -1.92754 -0.64199 -1.56453 9.43917 27.83322 5.44406 -76.05031 -4.46803 0.26366 -7.79564 6.80055 0.78792 -2.25685 3.27283 -4.06921 -4.89293 -5.06914 1.95004 -13.90604 -4.98608 7.3232 5.53594 6.42996
9e-05 0.57929 0.00161 184.4652 0 -2.70137 5.56461 5.28385 -2.90819 -0.89149 0.72599 -2.77712 -3.77979 -11.70082 -11.7491 6.79773 78.65272 -1.93135 -0.60813 -1.76928 9.32262 29.93838 5.33965 -75.72167 -4.54975 0.16584 -7.77138 6.80321 0.84986 -2.29745 3.27136 -4.0704 -4.91351 -5.10417 1.96905 -13.84187 -4.92745 7.32328 5.54988 6.37267
0.0001 0.57928 0.00186 184.4101 0 -2.73776 5.62083 5.30829 -2.90779 -1.29129 0.86748 -2.78272 -3.52498 -11.81341 -12.26357 6.70286 78.64356 -1.90105 -0.53503 -1.61811 9.10999 31.20143 5.32033 -75.56584 -4.5756 0.05215 -7.72516 6.81427 0.89953 -2.37883 3.2891 -4.07812 -4.9329 -5.11699 1.97757 -13.80878 -4.921 7.3493 5.59045 6.40138
0.0001 0.57927 0.00207 184.34855 0 -2.77516 5.6943 5.32893 -2.90802 -1.76971 1.02322 -2.78986 -3.14511 -11.93397 -12.81156 6.60284 78.64168 -1.8578 -0.44456 -1.31426 8.86745 32.24427 5.3317 -75.47719 -4.58699 -0.0705 -7.67038 6.83054 0.9787 -2.47528 3.30944 -4.0939 -4.98354 -5.12303 1.98456 -13.78435 -4.93048 7.38395 5.63871 6.45786
0.00011 0.57927 0.0023 184.28809 0 -2.81322 5.76071 5.3523 -2.90784 -2.21876 1.16846 -2.7975 -2.8038 -12.04889 -13.344 6.50287 78.63204 -1.81969 -0.35752 -1.0549 8.64356 33.51203 5.32851 -75.36621 -4.61216 -0.19305 -7.61893 6.84723 1.09195 -2.56511 3.32265 -4.11386 -5.06488 -5.134 1.99513 -13.75266 -4.92852 7.41364 5.68089 6.49689
0.00011 0.57926 0.00256 184.23569 0 -2.84675 5.82395 5.37157 -2.90807 -2.64058 1.33133 -2.79995 -2.54112 -12.17302 -13.88335 6.41165 78.63998 -1.7844 -0.28775 -0.90291 8.39629 34.28676 5.32786 -75.22674 -4.60704 -0.29927 -7.56994 6.85259 1.01699 -2.65413 3.35977 -4.10262 -4.96914 -5.13757 1.99375 -13.73485 -4.94358 7.44771 5.73373 6.55561
0.00013 0.57925 0.00273 184.16461 0 -2.88969 5.89772 5.39831 -2.90774 -3.1382 1.46001 -2.81372 -2.08311 -12.27898 -14.40918 6.30215 78.61455 -1.74059 -0.17986 -0.48814 8.19318 35.99325 5.32929 -75.15495 -4.6614 -0.44108 -7.5137 6.88223 1.32572 -2.74822 3.3492 -4.1559 -5.23404 -5.15445 2.01658 -13.69041 -4.92784 7.47473 5.76649 6.5808
0.00025 0.57927 0.00269 184.04632 0 -2.9606 5.99763 5.44808 -2.90432 -3.82295 1.49803 -2.85696 -1.13198 -12.34013 -14.95001 6.13372 78.48196 -1.67268 0.04582 0.59089 8.09761 40.69213 5.32834 -75.3222 -4.8838 -0.6826 -7.44017 6.9825 2.82097 -2.85444 3.19335 -4.40584 -6.62377 -5.21372 2.10942 -13.56848 -4.81589 7.48006 5.73966 6.49905
0.0004 0.57928 0.00255 183.90885 0 -3.04049 6.10724 5.50522 -2.90044 -4.58192 1.49968 -2.91174 0.01432 -12.38114 -15.4645 5.94904 78.31793 -1.59734 0.30597 1.93399 8.05173 46.26629 5.3287 -75.54497 -5.16574 -0.95818 -7.35948 7.10616 4.67826 -2.96494 2.99167 -4.71678 -8.35175 -5.28578 2.22615 -13.41983 -4.67389 7.47803 5.69286 6.3841
0.00054 0.5793 0.00245 183.7784 0 -3.11485 6.21163 5.55807 -2.89788 -5.30873 1.5134 -2.96221 1.08157 -12.42682 -15.95176 5.77797 78.17703 -1.52785 0.53958 3.17144 7.99712 51.20223 5.32863 -75.69415 -5.42119 -1.21683 -7.28168 7.21586 6.27923 -3.07224 2.8197 -4.98614 -9.83282 -5.34946 2.33016 -13.28457 -4.55022 7.47942 5.65659 6.28918
